<svg width="48" height="48" viewBox="0 0 48 48" fill="none" xmlns="http://www.w3.org/2000/svg">
<g clip-path="url(#clip0_75_237)">
<path d="M23.1553 1.33302C23.548 0.713358 24.452 0.713356 24.8447 1.33302L27.0715 4.84719C27.3773 5.32977 28.0246 5.45852 28.4918 5.12969L31.8939 2.73519C32.4938 2.31296 33.329 2.65893 33.4547 3.38169L34.1672 7.48052C34.265 8.0434 34.8137 8.41004 35.3712 8.28503L39.4307 7.37474C40.1465 7.21422 40.7858 7.85349 40.6253 8.56931L39.715 12.6288C39.59 13.1863 39.9566 13.735 40.5195 13.8328L44.6183 14.5453C45.3411 14.671 45.687 15.5062 45.2648 16.1061L42.8703 19.5082C42.5415 19.9754 42.6702 20.6227 43.1528 20.9285L46.667 23.1553C47.2866 23.548 47.2866 24.452 46.667 24.8447L43.1528 27.0715C42.6702 27.3773 42.5415 28.0246 42.8703 28.4918L45.2648 31.8939C45.687 32.4938 45.3411 33.329 44.6183 33.4547L40.5195 34.1672C39.9566 34.265 39.59 34.8137 39.715 35.3712L40.6253 39.4307C40.7858 40.1465 40.1465 40.7858 39.4307 40.6253L35.3712 39.715C34.8137 39.59 34.265 39.9566 34.1672 40.5195L33.4547 44.6183C33.329 45.3411 32.4938 45.687 31.8939 45.2648L28.4918 42.8703C28.0246 42.5415 27.3773 42.6702 27.0715 43.1528L24.8447 46.667C24.452 47.2866 23.548 47.2866 23.1553 46.667L20.9285 43.1528C20.6227 42.6702 19.9754 42.5415 19.5082 42.8703L16.1061 45.2648C15.5062 45.687 14.671 45.3411 14.5453 44.6183L13.8328 40.5195C13.735 39.9566 13.1863 39.59 12.6288 39.715L8.56931 40.6253C7.85349 40.7858 7.21422 40.1465 7.37474 39.4307L8.28503 35.3712C8.41004 34.8137 8.0434 34.265 7.48052 34.1672L3.38169 33.4547C2.65893 33.329 2.31296 32.4938 2.73519 31.8939L5.12969 28.4918C5.45852 28.0246 5.32977 27.3773 4.84719 27.0715L1.33302 24.8447C0.713358 24.452 0.713356 23.548 1.33302 23.1553L4.84719 20.9285C5.32977 20.6227 5.45852 19.9754 5.12969 19.5082L2.73519 16.1061C2.31296 15.5062 2.65893 14.671 3.38169 14.5453L7.48052 13.8328C8.0434 13.735 8.41004 13.1863 8.28503 12.6288L7.37474 8.56931C7.21422 7.85349 7.85349 7.21422 8.56931 7.37474L12.6288 8.28503C13.1863 8.41004 13.735 8.0434 13.8328 7.48052L14.5453 3.38169C14.671 2.65893 15.5062 2.31296 16.1061 2.73519L19.5082 5.12969C19.9754 5.45852 20.6227 5.32977 20.9285 4.84719L23.1553 1.33302Z" fill="#FFDA7B"/>
<circle cx="19" cy="20" r="2" fill="black"/>
<circle cx="29" cy="20" r="2" fill="black"/>
<path fill-rule="evenodd" clip-rule="evenodd" d="M18.0017 26.856C18.0006 26.9038 18 26.9519 18 27C18 30.3137 20.6863 33 24 33C27.3137 33 30 30.3137 30 27C30 26.9519 29.9994 26.9038 29.9983 26.856H18.0017Z" fill="#FF9356"/>
</g>
<defs>
<clipPath id="clip0_75_237">
<rect width="48" height="48" fill="white"/>
</clipPath>
</defs>
</svg>
