<svg width="48" height="48" viewBox="0 0 48 48" fill="none" xmlns="http://www.w3.org/2000/svg">
<path d="M44 19.5618C44 35.211 24 43 24 43C24 43 4 35.211 3.99999 19.5618C4 10.8638 13.1892 0.103625 24 5.41039C34.8108 0.103623 44 10.8638 44 19.5618Z" fill="#FFC4C4"/>
<circle cx="19" cy="19" r="2" fill="black"/>
<circle cx="29" cy="19" r="2" fill="black"/>
<path fill-rule="evenodd" clip-rule="evenodd" d="M18.0017 25.8559C18.0006 25.9038 18 25.9518 18 26C18 29.3137 20.6863 32 24 32C27.3137 32 30 29.3137 30 26C30 25.9518 29.9994 25.9038 29.9983 25.8559H18.0017Z" fill="#FF6767"/>
</svg>
