<svg width="48" height="48" viewBox="0 0 48 48" fill="none" xmlns="http://www.w3.org/2000/svg">
<ellipse cx="24" cy="28.9412" rx="20" ry="17.4588" fill="#32D77E"/>
<path d="M20.513 4.96164C20.7624 3.03891 22.4001 1.59998 24.3389 1.59998V1.59998C26.2777 1.59998 27.9154 3.03891 28.1648 4.96164L29.3526 14.1176H19.3252L20.513 4.96164Z" fill="#32D77E"/>
<ellipse cx="19.2542" cy="23.6706" rx="2.37288" ry="2.30588" fill="black"/>
<ellipse cx="29.4239" cy="23.6705" rx="2.37288" ry="2.30588" fill="black"/>
<ellipse cx="1.2943" cy="1.25775" rx="1.2943" ry="1.25775" transform="matrix(1 0 0 -1 20.271 31.1273)" fill="#009143"/>
<ellipse cx="1.2943" cy="1.25775" rx="1.2943" ry="1.25775" transform="matrix(1 0 0 -1 24.4624 31.1273)" fill="#009143"/>
<path d="M14.1694 33.8823C15.6497 36.9529 19.6439 39.1529 24.3389 39.1529C29.0339 39.1529 33.0281 36.9529 34.5084 33.8823" stroke="black" stroke-width="1.33599" stroke-linecap="round"/>
<ellipse cx="10.7797" cy="28.6117" rx="2.71186" ry="2.63529" fill="#AFF05D"/>
<ellipse cx="37.8981" cy="28.6117" rx="2.71186" ry="2.63529" fill="#AFF05D"/>
</svg>
