<svg width="48" height="48" viewBox="0 0 48 48" fill="none" xmlns="http://www.w3.org/2000/svg">
<path fill-rule="evenodd" clip-rule="evenodd" d="M28.7161 43.8054C37.1932 44.9967 45.3114 37.0954 46.8487 26.1572C48.386 15.219 42.7601 5.38601 34.283 4.19463C30.621 3.67997 27.026 4.86211 23.9996 7.25285C20.9731 4.86212 17.3781 3.68 13.7162 4.19465C5.23909 5.38603 -0.386767 15.219 1.1505 26.1572C2.68776 37.0954 10.806 44.9968 19.2831 43.8054C20.9813 43.5667 22.565 42.9813 23.9996 42.1097C25.4342 42.9813 27.018 43.5667 28.7161 43.8054Z" fill="#F77575"/>
<circle cx="19" cy="20" r="2" fill="black"/>
<circle cx="29" cy="20" r="2" fill="black"/>
<path fill-rule="evenodd" clip-rule="evenodd" d="M18.0017 26.856C18.0006 26.9038 18 26.9519 18 27C18 30.3137 20.6863 33 24 33C27.3137 33 30 30.3137 30 27C30 26.9519 29.9994 26.9038 29.9983 26.856H18.0017Z" fill="#FFC8A9"/>
</svg>
