<svg width="48" height="48" viewBox="0 0 48 48" fill="none" xmlns="http://www.w3.org/2000/svg">
<path fill-rule="evenodd" clip-rule="evenodd" d="M22.6286 40.4571C26.7944 36.2913 26.7944 29.5372 22.6286 25.3714C18.4628 21.2056 11.7087 21.2056 7.54286 25.3714C3.37705 29.5372 3.37705 36.2913 7.54286 40.4571C11.7087 44.6229 18.4628 44.6229 22.6286 40.4571ZM40.4572 22.6286C44.623 18.4628 44.623 11.7087 40.4572 7.54286C36.2914 3.37705 29.5373 3.37705 25.3715 7.54286C21.2057 11.7087 21.2057 18.4628 25.3715 22.6286C29.5373 26.7944 36.2914 26.7944 40.4572 22.6286Z" fill="#F2AAEB"/>
<path fill-rule="evenodd" clip-rule="evenodd" d="M22.6283 7.54288C18.4625 3.37708 11.7084 3.37708 7.54263 7.54289C3.37682 11.7087 3.37682 18.4628 7.54263 22.6286C11.7084 26.7944 18.4625 26.7944 22.6283 22.6286C26.7941 18.4628 26.7941 11.7087 22.6283 7.54288ZM40.457 25.3714C36.2911 21.2056 29.537 21.2056 25.3712 25.3714C21.2054 29.5372 21.2054 36.2913 25.3712 40.4571C29.537 44.6229 36.2911 44.6229 40.457 40.4571C44.6228 36.2913 44.6228 29.5372 40.457 25.3714Z" fill="#F2AAEB"/>
<circle cx="23.9992" cy="24" r="10.6672" transform="rotate(-90 23.9992 24)" fill="#F2AAEB"/>
<circle cx="19.2119" cy="20.1816" r="2" fill="black"/>
<circle cx="28.7881" cy="20.1816" r="2" fill="black"/>
<path fill-rule="evenodd" clip-rule="evenodd" d="M18.1833 26.7695C18.1822 26.816 18.1816 26.8625 18.1816 26.9092C18.1816 30.1227 20.7867 32.7277 24.0001 32.7277C27.2136 32.7277 29.8186 30.1227 29.8186 26.9092C29.8186 26.8625 29.818 26.816 29.817 26.7695H18.1833Z" fill="#F06363"/>
</svg>
