<svg width="48" height="48" viewBox="0 0 48 48" fill="none" xmlns="http://www.w3.org/2000/svg">
<path d="M20.7202 3.43521C21.7525 0.188259 26.2475 0.188268 27.2799 3.43521L30.5813 13.8188C31.043 15.2709 32.3671 16.254 33.8611 16.254H44.5448C47.8855 16.254 49.2746 20.6227 46.5718 22.6295L37.9286 29.0469C36.7199 29.9443 36.2141 31.535 36.6758 32.9871L39.9772 43.3707C41.0096 46.6176 37.373 49.3177 34.6703 47.3109L26.0271 40.8935C24.8184 39.9961 23.1816 39.9961 21.9729 40.8935L13.3297 47.3109C10.627 49.3177 6.99044 46.6176 8.0228 43.3707L11.3242 32.9871C11.7859 31.535 11.2801 29.9443 10.0714 29.0469L1.42819 22.6295C-1.27456 20.6227 0.114478 16.254 3.45525 16.254H14.1389C15.6329 16.254 16.957 15.2709 17.4187 13.8188L20.7202 3.43521Z" fill="#F677A5"/>
<circle cx="19" cy="23" r="2" fill="black"/>
<circle cx="29" cy="23" r="2" fill="black"/>
<path fill-rule="evenodd" clip-rule="evenodd" d="M18.0017 29.856C18.0006 29.9038 18 29.9519 18 30C18 33.3137 20.6863 36 24 36C27.3137 36 30 33.3137 30 30C30 29.9519 29.9994 29.9038 29.9983 29.856H18.0017Z" fill="#FFC5DD"/>
</svg>
