<svg width="48" height="48" viewBox="0 0 48 48" fill="none" xmlns="http://www.w3.org/2000/svg">
<g clip-path="url(#clip0_75_239)">
<path d="M20.5774 2.65866C22.1337 0.0855556 25.8663 0.085557 27.4226 2.65866L33.6662 12.9813C34.0011 13.5348 34.4651 13.9989 35.0187 14.3338L45.3413 20.5774C47.9144 22.1337 47.9144 25.8663 45.3413 27.4226L35.0187 33.6662C34.4651 34.0011 34.0011 34.4651 33.6662 35.0187L27.4226 45.3413C25.8663 47.9144 22.1337 47.9144 20.5774 45.3413L14.3338 35.0187C13.9989 34.4651 13.5348 34.0011 12.9813 33.6662L2.65866 27.4226C0.0855556 25.8663 0.085557 22.1337 2.65866 20.5774L12.9813 14.3338C13.5348 13.9989 13.9989 13.5348 14.3338 12.9813L20.5774 2.65866Z" fill="#FFDA7B"/>
<circle cx="19" cy="20" r="2" fill="black"/>
<circle cx="29" cy="20" r="2" fill="black"/>
<path fill-rule="evenodd" clip-rule="evenodd" d="M18.0017 26.856C18.0006 26.9038 18 26.9519 18 27C18 30.3137 20.6863 33 24 33C27.3137 33 30 30.3137 30 27C30 26.9519 29.9994 26.9038 29.9983 26.856H18.0017Z" fill="#FF9356"/>
</g>
<defs>
<clipPath id="clip0_75_239">
<rect width="48" height="48" fill="white"/>
</clipPath>
</defs>
</svg>
