<svg width="48" height="48" viewBox="0 0 48 48" fill="none" xmlns="http://www.w3.org/2000/svg">
<path fill-rule="evenodd" clip-rule="evenodd" d="M25.6162 3.07484C24.8685 1.64168 22.8176 1.64168 22.0698 3.07484L16.8915 13L4.16174 13C2.48473 13 1.55238 14.9398 2.6 16.2494L10.224 25.7794L1.36918 42.7511C0.674467 44.0827 1.64048 45.6763 3.14235 45.6763L44.5437 45.6763C46.0456 45.6763 47.0116 44.0827 46.3169 42.7511L37.5863 26.0176L45.401 16.2494C46.4486 14.9398 45.5163 13 43.8392 13L30.7945 13L25.6162 3.07484Z" fill="#58B9FF"/>
<circle cx="19" cy="24" r="2" fill="black"/>
<circle cx="29" cy="24" r="2" fill="black"/>
<path fill-rule="evenodd" clip-rule="evenodd" d="M18.0017 30.8559C18.0006 30.9038 18 30.9518 18 30.9999C18 34.3136 20.6863 36.9999 24 36.9999C27.3137 36.9999 30 34.3136 30 30.9999C30 30.9518 29.9994 30.9038 29.9983 30.8559H18.0017Z" fill="#CFEBFF"/>
</svg>
