<svg width="48" height="48" viewBox="0 0 48 48" fill="none" xmlns="http://www.w3.org/2000/svg">
<path d="M23.2074 21.0304C23.6077 20.51 24.3923 20.51 24.7926 21.0304L42.7618 44.3903C43.2676 45.0479 42.7988 46 41.9691 46H6.03086C5.20119 46 4.73238 45.0479 5.23824 44.3903L23.2074 21.0304Z" fill="#5BBD65"/>
<path d="M23.2074 12.0304C23.6077 11.51 24.3923 11.51 24.7926 12.0304L42.7618 35.3903C43.2676 36.0479 42.7988 37 41.9691 37H6.03086C5.20119 37 4.73238 36.0479 5.23824 35.3903L23.2074 12.0304Z" fill="#5BBD65"/>
<path d="M23.2074 3.03041C23.6077 2.51003 24.3923 2.51003 24.7926 3.03041L42.7618 26.3903C43.2676 27.0479 42.7988 28 41.9691 28H6.03086C5.20119 28 4.73238 27.0479 5.23824 26.3903L23.2074 3.03041Z" fill="#5BBD65"/>
<circle cx="19" cy="24" r="2" fill="black"/>
<circle cx="29" cy="24" r="2" fill="black"/>
<path fill-rule="evenodd" clip-rule="evenodd" d="M18.0017 30.8559C18.0006 30.9038 18 30.9518 18 30.9999C18 34.3136 20.6863 36.9999 24 36.9999C27.3137 36.9999 30 34.3136 30 30.9999C30 30.9518 29.9994 30.9038 29.9983 30.8559H18.0017Z" fill="#8FEB80"/>
</svg>
