<svg width="48" height="48" viewBox="0 0 48 48" fill="none" xmlns="http://www.w3.org/2000/svg">
<path d="M23.3642 3.52352C23.7335 3.21943 24.2664 3.21943 24.6356 3.52352L43.7567 19.2703H4.24316L23.3642 3.52352Z" fill="#FD7979"/>
<path d="M4.24316 19.2703H43.7567V45C43.7567 45.5523 43.309 46 42.7567 46H5.24316C4.69088 46 4.24316 45.5523 4.24316 45V19.2703Z" fill="#FFC554"/>
<circle cx="17.8652" cy="25.9189" r="2" fill="black"/>
<circle cx="29.4434" cy="25.9189" r="2" fill="black"/>
<path fill-rule="evenodd" clip-rule="evenodd" d="M16.9794 33.773C16.9782 33.8263 16.9775 33.8797 16.9775 33.9333C16.9775 37.6205 19.9666 40.6095 23.6538 40.6095C27.341 40.6095 30.33 37.6205 30.33 33.9333C30.33 33.8797 30.3294 33.8263 30.3282 33.773L16.9794 33.773Z" fill="#FD7979"/>
</svg>
