<svg width="48" height="48" viewBox="0 0 48 48" fill="none" xmlns="http://www.w3.org/2000/svg">
<ellipse cx="24" cy="22" rx="21" ry="19" transform="rotate(180 24 22)" fill="#C78EFF"/>
<circle cx="19.2979" cy="18" r="2" fill="black"/>
<circle cx="28.7021" cy="18" r="2" fill="black"/>
<path fill-rule="evenodd" clip-rule="evenodd" d="M18.2575 25.4791C18.2564 25.525 18.2559 25.5709 18.2559 25.617C18.2559 28.7897 20.8278 31.3617 24.0005 31.3617C27.1732 31.3617 29.7452 28.7897 29.7452 25.617C29.7452 25.5709 29.7447 25.525 29.7436 25.4791L18.2575 25.4791Z" fill="#8155FF"/>
<ellipse cx="36" cy="40" rx="6" ry="6" transform="rotate(180 36 40)" fill="#C78EFF"/>
<ellipse cx="12" cy="40" rx="6" ry="6" transform="rotate(180 12 40)" fill="#C78EFF"/>
<ellipse cx="24" cy="41" rx="6" ry="6" transform="rotate(180 24 41)" fill="#C78EFF"/>
</svg>
