<svg width="48" height="48" viewBox="0 0 48 48" fill="none" xmlns="http://www.w3.org/2000/svg">
<g clip-path="url(#clip0_76_238)">
<path d="M48.0004 24.0031C48.0004 20.7215 45.1165 18.0614 38.4849 18.0614C38.4352 18.0614 38.3917 18.0614 38.3419 18.0614C38.373 18.0303 38.4103 17.9992 38.4476 17.9619C43.1339 13.2757 43.2954 9.35388 40.971 7.02939C38.6465 4.70491 34.7247 4.8665 30.0384 9.55276C30.0073 9.58384 29.9763 9.62113 29.939 9.65842C29.939 9.6087 29.939 9.5652 29.939 9.51547C29.939 2.89007 27.2789 0 23.9972 0C20.7156 0 18.0555 2.88385 18.0555 9.51547C18.0555 9.5652 18.0555 9.6087 18.0555 9.65842C18.0244 9.62735 17.9934 9.59006 17.9561 9.55276C13.2698 4.8665 9.34802 4.70491 7.02353 7.02939C4.69905 9.35388 4.86064 13.2757 9.5469 17.9619C9.57798 17.993 9.61527 18.0241 9.65256 18.0614C9.60284 18.0614 9.55934 18.0614 9.50961 18.0614C2.88421 18.0614 -0.00585938 20.7215 -0.00585938 24.0031C-0.00585938 27.2847 2.87799 29.9448 9.50961 29.9448C9.55934 29.9448 9.60284 29.9448 9.65256 29.9448C9.62149 29.9759 9.5842 30.007 9.5469 30.0443C4.86064 34.7305 4.69905 38.6523 7.02353 40.9768C9.34802 43.3013 13.2698 43.1397 17.9561 38.4534C17.9871 38.4224 18.0182 38.3851 18.0555 38.3478C18.0555 38.3975 18.0555 38.441 18.0555 38.4907C18.0555 45.1161 20.7156 48.0062 23.9972 48.0062C27.2789 48.0062 29.939 45.1224 29.939 38.4907C29.939 38.441 29.939 38.3975 29.939 38.3478C29.9701 38.3789 30.0011 38.4162 30.0384 38.4534C34.7247 43.1397 38.6465 43.3013 40.971 40.9768C43.2954 38.6523 43.1339 34.7305 38.4476 30.0443C38.4165 30.0132 38.3792 29.9821 38.3419 29.9448C38.3917 29.9448 38.4352 29.9448 38.4849 29.9448C45.1103 29.9448 48.0004 27.2847 48.0004 24.0031Z" fill="#F3A6CF"/>
<circle cx="19.3613" cy="19.4043" r="2" fill="black"/>
<circle cx="29.6592" cy="19.4043" r="2" fill="black"/>
<path fill-rule="evenodd" clip-rule="evenodd" d="M18.3845 26.4061C18.3834 26.455 18.3828 26.504 18.3828 26.5532C18.3828 29.9374 21.1263 32.6808 24.5105 32.6808C27.8947 32.6808 30.6381 29.9374 30.6381 26.5532C30.6381 26.504 30.6376 26.455 30.6364 26.4061H18.3845Z" fill="#F55D67"/>
</g>
<defs>
<clipPath id="clip0_76_238">
<rect width="48" height="48" fill="white"/>
</clipPath>
</defs>
</svg>
