<svg width="48" height="48" viewBox="0 0 48 48" fill="none" xmlns="http://www.w3.org/2000/svg">
<ellipse cx="24" cy="29.1883" rx="21" ry="18.3318" fill="#609FFF"/>
<circle cx="19" cy="25" r="2" fill="black"/>
<circle cx="29" cy="25" r="2" fill="black"/>
<path fill-rule="evenodd" clip-rule="evenodd" d="M18.0017 32C18.0006 32.0479 18 32.0959 18 32.144C18 35.4578 20.6863 38.144 24 38.144C27.3137 38.144 30 35.4578 30 32.144C30 32.0959 29.9994 32.0479 29.9983 32H18.0017Z" fill="#A9DBFF"/>
<rect x="21" y="1" width="6" height="12" rx="3" fill="#609FFF"/>
<path fill-rule="evenodd" clip-rule="evenodd" d="M10 6C10 4.34315 11.3431 3 13 3C17.9706 3 22 7.02944 22 12V16C22 17.6569 20.6569 19 19 19C17.3431 19 16 17.6569 16 16V12C16 10.3431 14.6569 9 13 9C11.3431 9 10 7.65685 10 6Z" fill="#609FFF"/>
<path fill-rule="evenodd" clip-rule="evenodd" d="M38 6C38 4.34315 36.6569 3 35 3C30.0294 3 26 7.02944 26 12V16C26 17.6569 27.3431 19 29 19C30.6569 19 32 17.6569 32 16V12C32 10.3431 33.3431 9 35 9C36.6569 9 38 7.65685 38 6Z" fill="#609FFF"/>
</svg>
