<svg width="48" height="48" viewBox="0 0 48 48" fill="none" xmlns="http://www.w3.org/2000/svg">
<path d="M23.2437 4.87413C23.6426 4.41316 24.3575 4.41316 24.7563 4.87413L32.1913 13.468C32.5605 13.8948 33.2095 13.9317 33.6247 13.5495L42.3228 5.54373C42.9637 4.95382 44 5.40843 44 6.2795V44.9998C44 45.5521 43.5523 45.9998 43 45.9998L5 46C4.44772 46 4 45.5523 4 45V6.27951C4 5.40844 5.0363 4.95382 5.67722 5.54373L14.3753 13.5495C14.7905 13.9317 15.4395 13.8948 15.8087 13.468L23.2437 4.87413Z" fill="#FFDA7B"/>
<circle cx="19" cy="26" r="2" fill="black"/>
<circle cx="29" cy="26" r="2" fill="black"/>
<path fill-rule="evenodd" clip-rule="evenodd" d="M18.0017 33C18.0006 33.0479 18 33.0959 18 33.144C18 36.4578 20.6863 39.144 24 39.144C27.3137 39.144 30 36.4578 30 33.144C30 33.0959 29.9994 33.0479 29.9983 33H18.0017Z" fill="#FF9356"/>
</svg>
