<svg width="48" height="48" viewBox="0 0 48 48" fill="none" xmlns="http://www.w3.org/2000/svg">
<path d="M17 9.5122C17 5.36335 13.866 2 10 2C6.13403 2 3 5.36335 3 9.5122V30C3 38.8366 10.1634 46 19 46H29C37.8366 46 45 38.8366 45 30V9.5122C45 5.36335 41.866 2 38 2C34.134 2 31 5.36335 31 9.5122C31 5.36335 27.866 2 24 2C20.134 2 17 5.36335 17 9.5122Z" fill="#F77575"/>
<circle cx="19" cy="22" r="2" fill="black"/>
<circle cx="29" cy="22" r="2" fill="black"/>
<path fill-rule="evenodd" clip-rule="evenodd" d="M18.0017 28.8559C18.0006 28.9038 18 28.9518 18 28.9999C18 32.3136 20.6863 34.9999 24 34.9999C27.3137 34.9999 30 32.3136 30 28.9999C30 28.9518 29.9994 28.9038 29.9983 28.8559H18.0017Z" fill="#FFC8A9"/>
</svg>
