<svg width="40" height="24" viewBox="0 0 40 24" fill="none" xmlns="http://www.w3.org/2000/svg">
<path fill-rule="evenodd" clip-rule="evenodd" d="M1.38659 3.19927C0.563563 2.39051 1.14177 1 2.3011 1H9.52506C15.3043 1 19.9894 5.64063 19.9894 11.3651V13.6349C19.9894 15.3068 19.5897 16.8863 18.8798 18.2848C19.7684 18.7247 20.853 18.6438 21.6698 18.0411V3.19408C21.6698 1.98232 22.6615 1 23.8848 1H37.9748C39.1366 1 39.7137 2.39559 38.8856 3.20284L23.0446 18.6466V21.8059C23.0446 22.2656 23.4208 22.6382 23.8848 22.6382H38.5459L31.8907 13.8934C31.6621 13.5931 31.7226 13.1662 32.0258 12.9398C32.329 12.7134 32.76 12.7734 32.9885 13.0737L39.736 21.9396C40.381 22.7871 39.7706 24 38.6991 24H23.8848C22.6615 24 21.6698 23.0177 21.6698 21.8059V19.6021C20.5524 20.076 19.2641 20.0285 18.1814 19.4606C16.2982 22.2006 13.1238 24 9.52506 24H4.63662C3.41327 24 2.42155 23.0177 2.42155 21.8059V8.49013C2.42155 8.11407 2.72932 7.80921 3.10898 7.80921C3.48864 7.80921 3.79642 8.11407 3.79642 8.49013V21.8059C3.79642 22.2656 4.17259 22.6382 4.63662 22.6382H9.52506C12.6797 22.6382 15.459 21.0463 17.0889 18.6293L1.38659 3.19927ZM17.7858 17.3959C18.3178 16.2514 18.6145 14.9774 18.6145 13.6349V11.3651C18.6145 6.39275 14.545 2.36184 9.52506 2.36184H2.48654L17.7858 17.3959ZM23.0446 16.7358L37.7883 2.36184H23.8848C23.4208 2.36184 23.0446 2.73445 23.0446 3.19408V16.7358Z" fill="#545454"/>
</svg>
