<svg width="140" height="36" viewBox="0 0 140 36" fill="none" xmlns="http://www.w3.org/2000/svg">
<path d="M128.709 26.393C128.709 23.7383 128.709 21.0617 128.709 18.363C128.709 15.6643 128.709 12.9877 128.709 10.333C129.31 10.333 129.919 10.333 130.535 10.333C131.151 10.333 131.752 10.333 132.339 10.333C132.339 12.9877 132.339 15.6643 132.339 18.363C132.339 21.0617 132.339 23.7383 132.339 26.393C131.752 26.393 131.151 26.393 130.535 26.393C129.919 26.393 129.31 26.393 128.709 26.393Z" fill="#ABDCFF"/>
<path d="M126.405 15.019C126.405 16.8963 126.405 18.7956 126.405 20.717C126.405 22.6236 126.405 24.5156 126.405 26.393C125.818 26.393 125.217 26.393 124.601 26.393C123.985 26.393 123.376 26.393 122.775 26.393C122.775 26.2903 122.775 26.195 122.775 26.107C122.775 26.019 122.775 25.9236 122.775 25.821C122.379 26.0996 121.931 26.3123 121.433 26.459C120.949 26.6203 120.421 26.701 119.849 26.701C119.013 26.701 118.272 26.5103 117.627 26.129C116.996 25.7476 116.497 25.1976 116.131 24.479C115.779 23.7603 115.603 22.9096 115.603 21.927C115.603 20.783 115.603 19.6316 115.603 18.473C115.603 17.3143 115.603 16.163 115.603 15.019C116.204 15.019 116.813 15.019 117.429 15.019C118.045 15.019 118.646 15.019 119.233 15.019C119.233 16.075 119.233 17.1456 119.233 18.231C119.233 19.3163 119.233 20.387 119.233 21.443C119.233 22.0296 119.365 22.5063 119.629 22.873C119.907 23.225 120.34 23.401 120.927 23.401C121.513 23.401 121.968 23.2323 122.291 22.895C122.613 22.5576 122.775 22.0736 122.775 21.443C122.775 20.387 122.775 19.3163 122.775 18.231C122.775 17.1456 122.775 16.075 122.775 15.019C123.376 15.019 123.985 15.019 124.601 15.019C125.217 15.019 125.818 15.019 126.405 15.019Z" fill="#ABDCFF"/>
<path d="M108.196 26.745C107.346 26.745 106.554 26.5983 105.82 26.305C105.087 25.997 104.449 25.5717 103.906 25.029C103.364 24.4717 102.938 23.8263 102.63 23.093C102.337 22.3597 102.19 21.5603 102.19 20.695C102.19 19.8297 102.337 19.0303 102.63 18.297C102.938 17.5637 103.364 16.9257 103.906 16.383C104.449 15.8403 105.087 15.4223 105.82 15.129C106.554 14.821 107.346 14.667 108.196 14.667C109.062 14.667 109.854 14.821 110.572 15.129C111.306 15.4223 111.944 15.8403 112.486 16.383C113.029 16.9257 113.447 17.5637 113.74 18.297C114.048 19.0303 114.202 19.8297 114.202 20.695C114.202 21.5603 114.048 22.3597 113.74 23.093C113.447 23.8263 113.029 24.4717 112.486 25.029C111.944 25.5717 111.306 25.997 110.572 26.305C109.854 26.5983 109.062 26.745 108.196 26.745ZM108.196 23.467C108.915 23.467 109.487 23.2103 109.912 22.697C110.352 22.169 110.572 21.5017 110.572 20.695C110.572 19.8737 110.352 19.2137 109.912 18.715C109.487 18.2017 108.915 17.945 108.196 17.945C107.478 17.945 106.898 18.2017 106.458 18.715C106.033 19.2137 105.82 19.8737 105.82 20.695C105.82 21.5017 106.033 22.169 106.458 22.697C106.898 23.2103 107.478 23.467 108.196 23.467Z" fill="#ABDCFF"/>
<path d="M100.335 25.865C99.3227 26.2903 98.318 26.5543 97.3207 26.657C96.3234 26.7597 95.3774 26.701 94.4827 26.481C93.6027 26.2757 92.818 25.9163 92.1287 25.403C91.4394 24.8897 90.8967 24.237 90.5007 23.445C90.1194 22.653 89.9287 21.7363 89.9287 20.695C89.9287 19.8297 90.068 19.0377 90.3467 18.319C90.64 17.5857 91.0507 16.9477 91.5787 16.405C92.1067 15.8477 92.73 15.4223 93.4487 15.129C94.1674 14.821 94.952 14.667 95.8027 14.667C96.5654 14.667 97.2547 14.7917 97.8707 15.041C98.4867 15.2903 99.022 15.6423 99.4767 16.097C99.9314 16.537 100.298 17.065 100.577 17.681C100.855 18.297 101.031 18.9717 101.105 19.705C101.178 20.4383 101.134 21.2157 100.973 22.037C99.77 22.037 98.56 22.037 97.3427 22.037C96.1254 22.037 94.9154 22.037 93.7127 22.037C93.9914 22.5943 94.4534 22.9903 95.0987 23.225C95.7587 23.4597 96.536 23.533 97.4307 23.445C98.34 23.357 99.308 23.1223 100.335 22.741C100.335 23.2543 100.335 23.775 100.335 24.303C100.335 24.831 100.335 25.3517 100.335 25.865ZM95.7147 17.923C95.2894 17.923 94.8934 18.0403 94.5267 18.275C94.1747 18.5097 93.9034 18.869 93.7127 19.353C94.3727 19.353 95.0327 19.353 95.6927 19.353C96.3674 19.353 97.0347 19.353 97.6947 19.353C97.5187 18.8543 97.2547 18.495 96.9027 18.275C96.5654 18.0403 96.1694 17.923 95.7147 17.923Z" fill="#ABDCFF"/>
<path d="M88.9802 21.883C88.9802 22.9977 88.6868 23.907 88.1002 24.611C87.5282 25.3003 86.7508 25.799 85.7682 26.107C84.8002 26.415 83.7148 26.547 82.5122 26.503C81.3095 26.4737 80.0848 26.2903 78.8382 25.953C78.8382 25.3223 78.8382 24.6917 78.8382 24.061C78.8382 23.4303 78.8382 22.7997 78.8382 22.169C79.9822 22.5797 81.0235 22.8363 81.9622 22.939C82.9008 23.0417 83.6488 23.005 84.2062 22.829C84.7635 22.6383 85.0422 22.323 85.0422 21.883C85.0422 21.575 84.8882 21.3257 84.5802 21.135C84.2722 20.9297 83.8688 20.7463 83.3702 20.585C82.8862 20.4237 82.3728 20.2403 81.8302 20.035C81.2875 19.815 80.7668 19.5437 80.2682 19.221C79.7842 18.8837 79.3882 18.451 79.0802 17.923C78.7722 17.3803 78.6182 16.7057 78.6182 15.899C78.6182 14.9017 78.8822 14.0583 79.4102 13.369C79.9382 12.6797 80.6495 12.159 81.5442 11.807C82.4535 11.455 83.4802 11.279 84.6242 11.279C85.7828 11.279 86.9782 11.455 88.2102 11.807C88.2102 12.4377 88.2102 13.0683 88.2102 13.699C88.2102 14.3297 88.2102 14.9603 88.2102 15.591C87.1835 15.151 86.2375 14.887 85.3722 14.799C84.5215 14.6963 83.8395 14.7403 83.3262 14.931C82.8128 15.107 82.5562 15.4003 82.5562 15.811C82.5562 16.1043 82.7102 16.3463 83.0182 16.537C83.3262 16.7277 83.7222 16.9037 84.2062 17.065C84.7048 17.2117 85.2255 17.395 85.7682 17.615C86.3108 17.8203 86.8242 18.099 87.3082 18.451C87.8068 18.7883 88.2102 19.2357 88.5182 19.793C88.8262 20.3357 88.9802 21.0323 88.9802 21.883Z" fill="#ABDCFF"/>
<path d="M66.0674 26.393C66.0674 24.5157 66.0674 22.6237 66.0674 20.717C66.0674 18.7957 66.0674 16.8963 66.0674 15.019C66.6687 15.019 67.2774 15.019 67.8934 15.019C68.5094 15.019 69.1107 15.019 69.6974 15.019C69.6974 15.1217 69.6974 15.2243 69.6974 15.327C69.6974 15.4297 69.6974 15.5323 69.6974 15.635C70.1521 15.3123 70.6654 15.0703 71.2374 14.909C71.8094 14.7477 72.4327 14.7037 73.1074 14.777C73.1074 15.3637 73.1074 15.9577 73.1074 16.559C73.1074 17.1603 73.1074 17.7543 73.1074 18.341C71.9487 18.1797 71.0907 18.2823 70.5334 18.649C69.9761 19.001 69.6974 19.5803 69.6974 20.387C69.6974 21.3697 69.6974 22.367 69.6974 23.379C69.6974 24.391 69.6974 25.3957 69.6974 26.393C69.1107 26.393 68.5094 26.393 67.8934 26.393C67.2774 26.393 66.6687 26.393 66.0674 26.393Z" fill="#ABDCFF"/>
<path d="M63.5955 25.865C62.5835 26.2903 61.5788 26.5543 60.5815 26.657C59.5841 26.7597 58.6381 26.701 57.7435 26.481C56.8635 26.2757 56.0788 25.9163 55.3895 25.403C54.7001 24.8897 54.1575 24.237 53.7615 23.445C53.3801 22.653 53.1895 21.7363 53.1895 20.695C53.1895 19.8297 53.3288 19.0377 53.6075 18.319C53.9008 17.5857 54.3115 16.9477 54.8395 16.405C55.3675 15.8477 55.9908 15.4223 56.7094 15.129C57.4281 14.821 58.2128 14.667 59.0634 14.667C59.8261 14.667 60.5155 14.7917 61.1315 15.041C61.7475 15.2903 62.2828 15.6423 62.7375 16.097C63.1921 16.537 63.5588 17.065 63.8375 17.681C64.1161 18.297 64.2921 18.9717 64.3655 19.705C64.4388 20.4383 64.3948 21.2157 64.2335 22.037C63.0308 22.037 61.8208 22.037 60.6035 22.037C59.3861 22.037 58.1761 22.037 56.9735 22.037C57.2521 22.5943 57.7141 22.9903 58.3595 23.225C59.0195 23.4597 59.7968 23.533 60.6915 23.445C61.6008 23.357 62.5688 23.1223 63.5955 22.741C63.5955 23.2543 63.5955 23.775 63.5955 24.303C63.5955 24.831 63.5955 25.3517 63.5955 25.865ZM58.9755 17.923C58.5501 17.923 58.1541 18.0403 57.7875 18.275C57.4355 18.5097 57.1641 18.869 56.9735 19.353C57.6335 19.353 58.2935 19.353 58.9535 19.353C59.6281 19.353 60.2955 19.353 60.9555 19.353C60.7795 18.8543 60.5155 18.495 60.1635 18.275C59.8261 18.0403 59.4301 17.923 58.9755 17.923Z" fill="#ABDCFF"/>
<path d="M47.8652 26.393C47.8652 26.2757 47.8652 26.1657 47.8652 26.063C47.8652 25.9457 47.8652 25.8357 47.8652 25.733C47.4985 26.041 47.0805 26.2757 46.6112 26.437C46.1565 26.613 45.6652 26.701 45.1372 26.701C44.3892 26.701 43.6852 26.5543 43.0252 26.261C42.3652 25.9677 41.7785 25.557 41.2652 25.029C40.7665 24.4863 40.3705 23.8483 40.0772 23.115C39.7985 22.3817 39.6592 21.575 39.6592 20.695C39.6592 19.8003 39.7985 18.9863 40.0772 18.253C40.3705 17.5197 40.7665 16.889 41.2652 16.361C41.7785 15.833 42.3652 15.4297 43.0252 15.151C43.6852 14.8577 44.3818 14.711 45.1152 14.711C45.6432 14.711 46.1418 14.799 46.6112 14.975C47.0805 15.1363 47.4985 15.3637 47.8652 15.657C47.8652 14.777 47.8652 13.8897 47.8652 12.995C47.8652 12.1003 47.8652 11.213 47.8652 10.333C48.4665 10.333 49.0752 10.333 49.6912 10.333C50.3072 10.333 50.9085 10.333 51.4952 10.333C51.4952 12.9877 51.4952 15.6643 51.4952 18.363C51.4952 21.0617 51.4952 23.7383 51.4952 26.393C50.9085 26.393 50.3072 26.393 49.6912 26.393C49.0752 26.393 48.4665 26.393 47.8652 26.393ZM45.6212 23.489C46.3252 23.489 46.8898 23.2323 47.3152 22.719C47.7405 22.2057 47.9532 21.531 47.9532 20.695C47.9532 19.859 47.7405 19.1917 47.3152 18.693C46.8898 18.1797 46.3252 17.923 45.6212 17.923C44.9025 17.923 44.3305 18.1723 43.9052 18.671C43.4945 19.1697 43.2892 19.8443 43.2892 20.695C43.2892 21.5457 43.4945 22.2277 43.9052 22.741C44.3305 23.2397 44.9025 23.489 45.6212 23.489Z" fill="#ABDCFF"/>
<path d="M27.4541 26.393C27.4541 24.5157 27.4541 22.6237 27.4541 20.717C27.4541 18.7957 27.4541 16.8963 27.4541 15.019C28.0554 15.019 28.6641 15.019 29.2801 15.019C29.8961 15.019 30.4974 15.019 31.0841 15.019C31.0841 15.1217 31.0841 15.217 31.0841 15.305C31.0841 15.393 31.0841 15.4883 31.0841 15.591C31.4801 15.3123 31.9201 15.0997 32.4041 14.953C32.9028 14.7917 33.4381 14.711 34.0101 14.711C34.8461 14.711 35.5794 14.9017 36.2101 15.283C36.8554 15.6643 37.3541 16.2143 37.7061 16.933C38.0728 17.637 38.2561 18.4877 38.2561 19.485C38.2561 20.629 38.2561 21.7803 38.2561 22.939C38.2561 24.0977 38.2561 25.249 38.2561 26.393C37.6694 26.393 37.0681 26.393 36.4521 26.393C35.8361 26.393 35.2274 26.393 34.6261 26.393C34.6261 25.337 34.6261 24.2663 34.6261 23.181C34.6261 22.0957 34.6261 21.025 34.6261 19.969C34.6261 19.3823 34.4868 18.913 34.2081 18.561C33.9441 18.1943 33.5188 18.011 32.9321 18.011C32.3454 18.011 31.8908 18.1797 31.5681 18.517C31.2454 18.8543 31.0841 19.3383 31.0841 19.969C31.0841 21.025 31.0841 22.0957 31.0841 23.181C31.0841 24.2663 31.0841 25.337 31.0841 26.393C30.4974 26.393 29.8961 26.393 29.2801 26.393C28.6641 26.393 28.0554 26.393 27.4541 26.393Z" fill="#ABDCFF"/>
<path d="M23.3368 13.721C22.9115 13.721 22.5228 13.6183 22.1708 13.413C21.8335 13.2077 21.5622 12.9363 21.3568 12.599C21.1515 12.2617 21.0488 11.8877 21.0488 11.477C21.0488 11.0663 21.1515 10.6997 21.3568 10.377C21.5622 10.0397 21.8335 9.76834 22.1708 9.563C22.5228 9.35767 22.9115 9.255 23.3368 9.255C23.7475 9.255 24.1215 9.35767 24.4588 9.563C24.8108 9.76834 25.0895 10.0397 25.2948 10.377C25.5002 10.6997 25.6028 11.0663 25.6028 11.477C25.6028 11.8877 25.5002 12.2617 25.2948 12.599C25.0895 12.9363 24.8108 13.2077 24.4588 13.413C24.1215 13.6183 23.7475 13.721 23.3368 13.721ZM21.5108 26.393C21.5108 24.5157 21.5108 22.6237 21.5108 20.717C21.5108 18.7957 21.5108 16.8963 21.5108 15.019C22.1122 15.019 22.7208 15.019 23.3368 15.019C23.9528 15.019 24.5542 15.019 25.1408 15.019C25.1408 16.8963 25.1408 18.7957 25.1408 20.717C25.1408 22.6237 25.1408 24.5157 25.1408 26.393C24.5542 26.393 23.9528 26.393 23.3368 26.393C22.7208 26.393 22.1122 26.393 21.5108 26.393Z" fill="#ABDCFF"/>
<path d="M7.66113 26.393C7.66113 23.929 7.66113 21.4356 7.66113 18.913C7.66113 16.3903 7.66113 13.897 7.66113 11.433C8.30647 11.433 8.9518 11.433 9.59713 11.433C10.2425 11.433 10.8805 11.433 11.5111 11.433C11.5111 12.3863 11.5111 13.3543 11.5111 14.337C11.5111 15.305 11.5111 16.2656 11.5111 17.219C12.2591 16.2656 13.0071 15.305 13.7551 14.337C14.5178 13.3543 15.2731 12.3863 16.0211 11.433C16.7398 11.433 17.4658 11.433 18.1991 11.433C18.9325 11.433 19.6585 11.433 20.3771 11.433C19.4531 12.6063 18.5145 13.7943 17.5611 14.997C16.6225 16.185 15.6911 17.3657 14.7671 18.539C15.7351 19.8297 16.7105 21.135 17.6931 22.455C18.6905 23.775 19.6731 25.0877 20.6411 26.393C19.8785 26.393 19.1085 26.393 18.3311 26.393C17.5685 26.393 16.8058 26.393 16.0431 26.393C15.2951 25.3517 14.5398 24.3103 13.7771 23.269C13.0145 22.213 12.2591 21.1716 11.5111 20.145C11.5111 21.1716 11.5111 22.213 11.5111 23.269C11.5111 24.3103 11.5111 25.3517 11.5111 26.393C10.8805 26.393 10.2425 26.393 9.59713 26.393C8.9518 26.393 8.30647 26.393 7.66113 26.393Z" fill="#ABDCFF"/>
</svg>
